<svg id="Layer_1" data-name="Layer 1" xmlns="http://www.w3.org/2000/svg" viewBox="0 0 1055 792.22"><title>funiture</title><path d="M0,388.7V351.19c16.07-49.1,45.45-83.07,100.54-86.29,56.13-3.28,92.25,24.79,116,73.83,14.19,29.29,31.39,57.12,47.4,85.91,178.13-39.44,354.92-37.49,531.12-.23,19.92-36.48,38.4-71.65,58.15-106.09,21.75-38,55-55.83,99-53.65,56.35,2.79,86.38,36.45,102.75,86.52V388.7c-9.62,40.89-29,76.31-71.4,87.78-26.08,7-36,21.78-41.56,44.34-1.12,4.52-2.88,8.87-4.38,13.29L880.08,702.8H174.77c-22.75-67-45.08-133.37-68-199.52-2.52-7.26-7.73-18-13.29-19.1C40.1,473.49,11.93,439.31,0,388.7Z"/><path d="M141.86,790.14c19.38-49.46,21.55-50.39,94-42.3C217,786,199.2,794.19,141.86,790.14Z"/><path d="M916.73,787.83C869.88,800.35,839,786,816.26,746.25c23.8,0,47.68-5,67.6,1.73C897.51,752.59,905.64,773.55,916.73,787.83Z"/><path d="M769.82,378.75c-161.64-29.35-322.69-29.57-484.8.12-12.13-21.14-25.63-41.33-35.82-63.06-30.07-64.14-81-94.17-150.44-95.88a71.67,71.67,0,0,1-8.51-1.16c-17.46-109.54,42-197.1,146.58-216.95C244.4.39,252.29.19,260,.18Q524.94,0,789.84,0C886,0,961.16,70.47,967.06,166.37c1.05,16.95.15,34,.15,49-27.12,6-52.6,9.54-76.61,17.49-41.78,13.85-66.78,46.78-87,83.88Z"/></svg>